<svg width="32" height="32" viewBox="0 0 32 32" fill="none" xmlns="http://www.w3.org/2000/svg">
<circle cx="16" cy="16" r="16" fill="#3751FF"/>
<path d="M6.28 9.76H10.04V24H6.28V9.76ZM25.4481 15.96V23.1C24.6881 23.4467 23.8348 23.7133 22.8881 23.9C21.9548 24.0867 20.9948 24.18 20.0081 24.18C18.4615 24.18 17.1148 23.8867 15.9681 23.3C14.8348 22.7133 13.9615 21.8733 13.3481 20.78C12.7348 19.6733 12.4281 18.3667 12.4281 16.86C12.4281 15.3933 12.7348 14.1133 13.3481 13.02C13.9615 11.9133 14.8281 11.0667 15.9481 10.48C17.0681 9.88 18.3748 9.58 19.8681 9.58C20.8948 9.58 21.8615 9.71333 22.7681 9.98C23.6881 10.2467 24.4348 10.6133 25.0081 11.08L23.8281 13.74C23.1748 13.3133 22.5415 13.0067 21.9281 12.82C21.3281 12.62 20.6815 12.52 19.9881 12.52C18.7215 12.52 17.7748 12.88 17.1481 13.6C16.5348 14.3067 16.2281 15.3933 16.2281 16.86C16.2281 18.38 16.5481 19.5067 17.1881 20.24C17.8415 20.9733 18.8415 21.34 20.1881 21.34C20.8148 21.34 21.4415 21.2733 22.0681 21.14V18.5H19.5881V15.96H25.4481Z" fill="white"/>
</svg>
